<svg data-v-fde0c5aa="" xmlns="http://www.w3.org/2000/svg" viewBox="0 0 300 300" class="iconLeft"><!----><defs data-v-fde0c5aa=""><!----></defs><rect data-v-fde0c5aa="" fill="#E1EFF7" x="0" y="0" width="300px" height="300px" class="logo-background-square"></rect><defs data-v-fde0c5aa=""><!----></defs><g data-v-fde0c5aa="" id="ee571927-a3d8-46a6-9af1-b5c5e1083e9a" fill="#0D2633" transform="matrix(3.669252115704968,0,0,3.669252115704968,123.3203569403542,102.04287596750294)"><path d="M6.37 12.77L6.37 12.77Q6.99 12.95 7.35 13.48L7.35 13.48L7.35 13.48Q7.71 14.01 7.71 14.71L7.71 14.71L7.71 14.71Q7.71 15.90 7.04 16.54L7.04 16.54L7.04 16.54Q6.37 17.18 5.11 17.18L5.11 17.18L0.98 17.18L0.98 8.43L4.65 8.43L4.65 8.43Q6.02 8.43 6.65 8.97L6.65 8.97L6.65 8.97Q7.28 9.51 7.28 10.67L7.28 10.67L7.28 10.67Q7.28 11.37 7.05 11.89L7.05 11.89L7.05 11.89Q6.82 12.40 6.37 12.68L6.37 12.68L6.37 12.77ZM5.21 10.99L5.21 10.99Q5.21 10.39 5.03 10.16L5.03 10.16L5.03 10.16Q4.84 9.94 4.35 9.94L4.35 9.94L3.08 9.94L3.08 12.03L4.34 12.03L4.34 12.03Q4.83 12.03 5.02 11.80L5.02 11.80L5.02 11.80Q5.21 11.58 5.21 10.99L5.21 10.99ZM4.70 15.67L4.70 15.67Q5.19 15.67 5.40 15.41L5.40 15.41L5.40 15.41Q5.60 15.15 5.60 14.53L5.60 14.53L5.60 14.53Q5.60 13.96 5.40 13.72L5.40 13.72L5.40 13.72Q5.21 13.48 4.72 13.48L4.72 13.48L3.08 13.48L3.08 15.67L4.70 15.67ZM15.43 10.18L15.43 17.18L14.41 17.18L13.87 16.48L13.87 16.48Q12.71 17.35 11.10 17.35L11.10 17.35L11.10 17.35Q10.08 17.35 9.60 16.93L9.60 16.93L9.60 16.93Q9.13 16.52 9.13 15.61L9.13 15.61L9.13 10.18L11.21 10.18L11.21 15.88L12.46 15.88L12.46 15.88Q12.95 15.88 13.15 15.74L13.15 15.74L13.15 15.74Q13.34 15.61 13.34 15.27L13.34 15.27L13.34 10.18L15.43 10.18ZM20.40 15.82L20.40 15.82Q21.50 15.96 22.06 16.15L22.06 16.15L22.06 16.15Q22.62 16.34 22.85 16.67L22.85 16.67L22.85 16.67Q23.07 17.00 23.07 17.60L23.07 17.60L23.07 17.60Q23.07 18.65 22.37 19.10L22.37 19.10L22.37 19.10Q21.67 19.56 20.08 19.56L20.08 19.56L20.08 19.56Q18.37 19.56 17.02 19.11L17.02 19.11L17.28 17.63L17.28 17.63Q18.59 17.98 19.67 17.98L19.67 17.98L19.67 17.98Q20.51 17.98 21.20 17.85L21.20 17.85L21.20 17.08L21.20 17.08Q19.82 16.98 19.24 16.84L19.24 16.84L19.24 16.84Q18.65 16.69 18.65 16.44L18.65 16.44L19.05 15.11L19.05 15.11Q17.91 14.97 17.40 14.36L17.40 14.36L17.40 14.36Q16.90 13.76 16.90 12.56L16.90 12.56L16.90 12.56Q16.90 11.62 17.20 11.05L17.20 11.05L17.20 11.05Q17.50 10.49 18.17 10.23L18.17 10.23L18.17 10.23Q18.83 9.97 19.94 9.97L19.94 9.97L19.94 9.97Q20.83 9.97 21.45 10.14L21.45 10.14L22.55 9.28L23.56 10.26L22.78 11.24L22.78 11.24Q22.99 11.76 22.99 12.56L22.99 12.56L22.99 12.56Q22.99 13.86 22.40 14.46L22.40 14.46L22.40 14.46Q21.81 15.05 20.45 15.13L20.45 15.13L20.40 15.82ZM18.91 11.80L18.91 13.99L20.23 13.99L20.23 13.99Q20.65 13.99 20.82 13.84L20.82 13.84L20.82 13.84Q20.99 13.69 20.99 13.33L20.99 13.33L20.99 11.14L19.66 11.14L19.66 11.14Q19.24 11.14 19.08 11.28L19.08 11.28L19.08 11.28Q18.91 11.42 18.91 11.80L18.91 11.80ZM27.45 19.03L27.45 19.03Q25.90 18.51 25.05 16.98L25.05 16.98L25.05 16.98Q24.21 15.46 24.21 12.81L24.21 12.81L24.21 12.81Q24.21 10.16 25.05 8.63L25.05 8.63L25.05 8.63Q25.90 7.10 27.45 6.58L27.45 6.58L27.69 8.18L27.69 8.18Q26.91 8.71 26.53 9.77L26.53 9.77L26.53 9.77Q26.15 10.84 26.15 12.81L26.15 12.81L26.15 12.81Q26.15 14.78 26.54 15.85L26.54 15.85L26.54 15.85Q26.92 16.91 27.69 17.43L27.69 17.43L27.45 19.03ZM30.27 10.18L30.90 11.20L30.90 11.20Q31.88 10.25 32.89 9.97L32.89 9.97L33.04 12.00L33.04 12.00Q32.65 12.08 32.13 12.30L32.13 12.30L32.13 12.30Q31.61 12.52 31.33 12.73L31.33 12.73L31.33 17.18L29.25 17.18L29.25 10.18L30.27 10.18ZM34.01 19.03L33.77 17.43L33.77 17.43Q34.54 16.91 34.92 15.85L34.92 15.85L34.92 15.85Q35.31 14.78 35.31 12.81L35.31 12.81L35.31 12.81Q35.31 10.84 34.93 9.77L34.93 9.77L34.93 9.77Q34.55 8.71 33.77 8.18L33.77 8.18L34.01 6.58L34.01 6.58Q35.56 7.10 36.41 8.63L36.41 8.63L36.41 8.63Q37.25 10.16 37.25 12.81L37.25 12.81L37.25 12.81Q37.25 15.46 36.41 16.98L36.41 16.98L36.41 16.98Q35.56 18.51 34.01 19.03L34.01 19.03Z"></path></g><defs data-v-fde0c5aa=""><linearGradient data-v-fde0c5aa="" gradientTransform="rotate(25)" id="a8b8c6af-1354-44a8-a2ad-e32c54e1ab81" x1="0%" y1="0%" x2="100%" y2="0%"><stop data-v-fde0c5aa="" offset="0%" stop-color="#006678" stop-opacity="1"></stop><stop data-v-fde0c5aa="" offset="100%" stop-color="#4FA8FF" stop-opacity="1"></stop></linearGradient></defs><g data-v-fde0c5aa="" id="d771dd72-95a7-4674-b617-458e0e45a2c8" stroke="none" fill="url(#a8b8c6af-1354-44a8-a2ad-e32c54e1ab81)" transform="matrix(0.7507005271841575,0,0,0.7507005271841575,39.42308675654309,112.46455876294303)"><path d="M41.05 14.265a8.457 8.457 0 0 1 8.458-8.457 8.456 8.456 0 0 1 8.456 8.457M78.086 59.403H95c5.642 0 5.642-8.748 0-8.748H78.086c-5.642 0-5.642 8.748 0 8.748zM75.961 70.545c4.36 1.886 8.721 3.772 13.08 5.659 2.188.946 4.673.67 5.985-1.569 1.095-1.869.62-5.038-1.569-5.985-4.36-1.886-8.721-3.772-13.08-5.659-2.188-.946-4.673-.67-5.985 1.569-1.095 1.869-.621 5.038 1.569 5.985zM67.933 84.276l16.62 7.334c5.111 2.255 9.567-5.281 4.416-7.555l-16.62-7.334c-5.112-2.254-9.568 5.282-4.416 7.555zM21.914 50.655H5c-5.642 0-5.642 8.748 0 8.748h16.914c5.642 0 5.642-8.748 0-8.748zM19.623 62.99l-13.08 5.659c-2.19.947-2.664 4.116-1.569 5.985 1.312 2.239 3.796 2.516 5.984 1.569l13.08-5.659c2.19-.947 2.664-4.116 1.569-5.985-1.311-2.239-3.795-2.515-5.984-1.569zM27.652 76.722l-16.621 7.334c-5.152 2.273-.696 9.81 4.415 7.555l16.621-7.334c5.153-2.274.696-9.81-4.415-7.555zM65.635 21.498L77.591 8.113c2.81-3.145-1.814-7.801-4.639-4.64L60.996 16.858c-2.809 3.144 1.815 7.801 4.639 4.64zM38.958 16.858L27 3.473c-2.824-3.162-7.449 1.495-4.64 4.64l11.957 13.385c2.825 3.161 7.45-1.496 4.641-4.64z"></path><path d="M78.115 35.97c-5.296-13.932-16.113-23.484-28.607-23.484S26.196 22.038 20.899 35.97h57.216zM43.888 45.312H18.324a56.774 56.774 0 0 0-.894 10.042c0 21.111 11.423 38.644 26.457 42.198v-52.24zM80.691 45.312H54.998v52.271C70.096 94.1 81.585 76.524 81.585 55.354c0-3.46-.314-6.821-.894-10.042z"></path></g><!----></svg>