<svg data-v-423bf9ae="" xmlns="http://www.w3.org/2000/svg" viewBox="0 0 167.65794331383174 60" class="font"><!----><!----><!----><g data-v-423bf9ae="" id="af3869cb-1743-45a8-8c3e-92b63679811d" fill="white" transform="matrix(4.622496310940746,0,0,4.622496310940746,-4.530043882826163,-30.416025373321624)"><path d="M6.37 12.77L6.37 12.77Q6.99 12.95 7.35 13.48L7.35 13.48L7.35 13.48Q7.71 14.01 7.71 14.71L7.71 14.71L7.71 14.71Q7.71 15.90 7.04 16.54L7.04 16.54L7.04 16.54Q6.37 17.18 5.11 17.18L5.11 17.18L0.98 17.18L0.98 8.43L4.65 8.43L4.65 8.43Q6.02 8.43 6.65 8.97L6.65 8.97L6.65 8.97Q7.28 9.51 7.28 10.67L7.28 10.67L7.28 10.67Q7.28 11.37 7.05 11.89L7.05 11.89L7.05 11.89Q6.82 12.40 6.37 12.68L6.37 12.68L6.37 12.77ZM5.21 10.99L5.21 10.99Q5.21 10.39 5.03 10.16L5.03 10.16L5.03 10.16Q4.84 9.94 4.35 9.94L4.35 9.94L3.08 9.94L3.08 12.03L4.34 12.03L4.34 12.03Q4.83 12.03 5.02 11.80L5.02 11.80L5.02 11.80Q5.21 11.58 5.21 10.99L5.21 10.99ZM4.70 15.67L4.70 15.67Q5.19 15.67 5.40 15.41L5.40 15.41L5.40 15.41Q5.60 15.15 5.60 14.53L5.60 14.53L5.60 14.53Q5.60 13.96 5.40 13.72L5.40 13.72L5.40 13.72Q5.21 13.48 4.72 13.48L4.72 13.48L3.08 13.48L3.08 15.67L4.70 15.67ZM15.43 10.18L15.43 17.18L14.41 17.18L13.87 16.48L13.87 16.48Q12.71 17.35 11.10 17.35L11.10 17.35L11.10 17.35Q10.08 17.35 9.60 16.93L9.60 16.93L9.60 16.93Q9.13 16.52 9.13 15.61L9.13 15.61L9.13 10.18L11.21 10.18L11.21 15.88L12.46 15.88L12.46 15.88Q12.95 15.88 13.15 15.74L13.15 15.74L13.15 15.74Q13.34 15.61 13.34 15.27L13.34 15.27L13.34 10.18L15.43 10.18ZM20.40 15.82L20.40 15.82Q21.50 15.96 22.06 16.15L22.06 16.15L22.06 16.15Q22.62 16.34 22.85 16.67L22.85 16.67L22.85 16.67Q23.07 17.00 23.07 17.60L23.07 17.60L23.07 17.60Q23.07 18.65 22.37 19.10L22.37 19.10L22.37 19.10Q21.67 19.56 20.08 19.56L20.08 19.56L20.08 19.56Q18.37 19.56 17.02 19.11L17.02 19.11L17.28 17.63L17.28 17.63Q18.59 17.98 19.67 17.98L19.67 17.98L19.67 17.98Q20.51 17.98 21.20 17.85L21.20 17.85L21.20 17.08L21.20 17.08Q19.82 16.98 19.24 16.84L19.24 16.84L19.24 16.84Q18.65 16.69 18.65 16.44L18.65 16.44L19.05 15.11L19.05 15.11Q17.91 14.97 17.40 14.36L17.40 14.36L17.40 14.36Q16.90 13.76 16.90 12.56L16.90 12.56L16.90 12.56Q16.90 11.62 17.20 11.05L17.20 11.05L17.20 11.05Q17.50 10.49 18.17 10.23L18.17 10.23L18.17 10.23Q18.83 9.97 19.94 9.97L19.94 9.97L19.94 9.97Q20.83 9.97 21.45 10.14L21.45 10.14L22.55 9.28L23.56 10.26L22.78 11.24L22.78 11.24Q22.99 11.76 22.99 12.56L22.99 12.56L22.99 12.56Q22.99 13.86 22.40 14.46L22.40 14.46L22.40 14.46Q21.81 15.05 20.45 15.13L20.45 15.13L20.40 15.82ZM18.91 11.80L18.91 13.99L20.23 13.99L20.23 13.99Q20.65 13.99 20.82 13.84L20.82 13.84L20.82 13.84Q20.99 13.69 20.99 13.33L20.99 13.33L20.99 11.14L19.66 11.14L19.66 11.14Q19.24 11.14 19.08 11.28L19.08 11.28L19.08 11.28Q18.91 11.42 18.91 11.80L18.91 11.80ZM27.45 19.03L27.45 19.03Q25.90 18.51 25.05 16.98L25.05 16.98L25.05 16.98Q24.21 15.46 24.21 12.81L24.21 12.81L24.21 12.81Q24.21 10.16 25.05 8.63L25.05 8.63L25.05 8.63Q25.90 7.10 27.45 6.58L27.45 6.58L27.69 8.18L27.69 8.18Q26.91 8.71 26.53 9.77L26.53 9.77L26.53 9.77Q26.15 10.84 26.15 12.81L26.15 12.81L26.15 12.81Q26.15 14.78 26.54 15.85L26.54 15.85L26.54 15.85Q26.92 16.91 27.69 17.43L27.69 17.43L27.45 19.03ZM30.27 10.18L30.90 11.20L30.90 11.20Q31.88 10.25 32.89 9.97L32.89 9.97L33.04 12.00L33.04 12.00Q32.65 12.08 32.13 12.30L32.13 12.30L32.13 12.30Q31.61 12.52 31.33 12.73L31.33 12.73L31.33 17.18L29.25 17.18L29.25 10.18L30.27 10.18ZM34.01 19.03L33.77 17.43L33.77 17.43Q34.54 16.91 34.92 15.85L34.92 15.85L34.92 15.85Q35.31 14.78 35.31 12.81L35.31 12.81L35.31 12.81Q35.31 10.84 34.93 9.77L34.93 9.77L34.93 9.77Q34.55 8.71 33.77 8.18L33.77 8.18L34.01 6.58L34.01 6.58Q35.56 7.10 36.41 8.63L36.41 8.63L36.41 8.63Q37.25 10.16 37.25 12.81L37.25 12.81L37.25 12.81Q37.25 15.46 36.41 16.98L36.41 16.98L36.41 16.98Q35.56 18.51 34.01 19.03L34.01 19.03Z"></path></g><!----><!----></svg>